<svg version="1.1" id="1" xmlns="http://www.w3.org/2000/svg" xmlns:xlink="http://www.w3.org/1999/xlink" x="0px" y="0px"
	 viewBox="0 0 32 32" style="enable-background:new 0 0 32 32;" xml:space="preserve">
<g>
	<path d="M13,16V9h-1v7c-1.1,0.2-2,1.2-2,2.5s0.9,2.2,2,2.5v2h1v-2c1.1-0.2,2-1.2,2-2.5S14.1,16.3,13,16z M12.5,20
		c-0.8,0-1.5-0.7-1.5-1.5c0-0.8,0.7-1.5,1.5-1.5c0.8,0,1.5,0.7,1.5,1.5C14,19.3,13.3,20,12.5,20z"/>
	<path d="M20,11V9h-1v2c-1.1,0.2-2,1.2-2,2.5s0.9,2.2,2,2.5v7h1v-7c1.1-0.2,2-1.2,2-2.5S21.1,11.3,20,11z M19.5,15
		c-0.8,0-1.5-0.7-1.5-1.5c0-0.8,0.7-1.5,1.5-1.5c0.8,0,1.5,0.7,1.5,1.5C21,14.3,20.3,15,19.5,15z"/>
</g>
</svg>
