<svg width="65" height="65" viewBox="0 0 65 65" fill="none" xmlns="http://www.w3.org/2000/svg">
<g clip-path="url(#clip0_351_56271)">
<path d="M33.1438 0.144081H36.3787C41.3368 0.144081 45.0469 0.14419 47.9925 0.3809C50.9365 0.617477 53.1043 1.08969 54.9803 2.02706C58.4392 3.75538 61.2436 6.55979 62.9719 10.0187C63.9093 11.8947 64.3815 14.0625 64.6181 17.0065C64.8548 19.9521 64.8549 23.6622 64.8549 28.6203V31.8551H61.6201C56.6619 31.8551 52.9519 31.855 50.0063 31.6183C47.0623 31.3817 44.8944 30.9095 43.0184 29.9722C39.5595 28.2438 36.7551 25.4394 35.0268 21.9805C34.0894 20.1046 33.6172 17.9367 33.3807 14.9927C33.1439 12.0471 33.1438 8.33707 33.1438 3.37892V0.144081Z" fill="#DBDBDB" stroke="white" stroke-width="0.290115"/>
<path d="M1.14359 32.1455H4.37843C9.33658 32.1455 13.0466 32.1457 15.9922 32.3824C18.9362 32.6189 21.1041 33.0912 22.98 34.0285C26.4389 35.7568 29.2433 38.5613 30.9717 42.0202C31.909 43.8961 32.3813 46.064 32.6178 49.008C32.8545 51.9536 32.8546 55.6636 32.8546 60.6218V63.8566H29.6198C24.6617 63.8566 20.9516 63.8565 18.006 63.6198C15.062 63.3832 12.8942 62.911 11.0182 61.9736C7.5593 60.2453 4.75489 57.4409 3.02658 53.982C2.08921 52.106 1.61699 49.9382 1.38041 46.9942C1.1437 44.0486 1.14359 40.3385 1.14359 35.3804V32.1455Z" fill="#F0F0F0" stroke="white" stroke-width="0.290115"/>
<path d="M33.1426 60.6223C33.1426 55.6641 33.1427 51.9541 33.3794 49.0084C33.616 46.0645 34.0882 43.8966 35.0256 42.0206C36.7539 38.5617 39.5583 35.7573 43.0172 34.029C44.8932 33.0916 47.0611 32.6194 50.005 32.3829C52.9507 32.1461 56.6607 32.146 61.6188 32.146H64.8537V35.3809C64.8537 40.339 64.8536 44.0491 64.6169 46.9947C64.3803 49.9386 63.9081 52.1065 62.9707 53.9825C61.2424 57.4414 58.438 60.2458 54.9791 61.9741C53.1031 62.9115 50.9352 63.3837 47.9913 63.6203C45.0456 63.857 41.3356 63.8571 36.3775 63.8571H33.1426V60.6223Z" fill="#E5E5E5" stroke="white" stroke-width="0.290115"/>
<path d="M1.14359 28.6203C1.14359 23.6622 1.1437 19.9521 1.38041 17.0065C1.61699 14.0625 2.08921 11.8947 3.02658 10.0187C4.75489 6.55979 7.5593 3.75538 11.0182 2.02706C12.8942 1.08969 15.062 0.617477 18.006 0.3809C20.9516 0.14419 24.6617 0.144081 29.6198 0.144081H32.8546V3.37891C32.8546 8.33706 32.8545 12.0471 32.6178 14.9927C32.3813 17.9367 31.909 20.1046 30.9717 21.9805C29.2433 25.4394 26.4389 28.2438 22.98 29.9722C21.1041 30.9095 18.9362 31.3817 15.9922 31.6183C13.0466 31.855 9.33658 31.8551 4.37843 31.8551H1.14359V28.6203Z" fill="#D1D1D1" stroke="white" stroke-width="0.290115"/>
</g>
<defs>
<clipPath id="clip0_351_56271">
<rect width="64.0014" height="64.0031" fill="white" transform="translate(0.998535 -0.000976562)"/>
</clipPath>
</defs>
</svg>
