<?xml version="1.0" encoding="utf-8"?>
<!-- Generator: Adobe Illustrator 24.0.3, SVG Export Plug-In . SVG Version: 6.00 Build 0)  -->
<svg version="1.1" id="Слой_1" xmlns="http://www.w3.org/2000/svg" xmlns:xlink="http://www.w3.org/1999/xlink" x="0px" y="0px"
	 viewBox="0 0 32 32" style="enable-background:new 0 0 32 32;" xml:space="preserve">
<style type="text/css">
	.st0{fill-rule:evenodd;clip-rule:evenodd;fill-opacity:0.8;}
	.st1{fill-opacity:0.8;}
</style>
<g>
	<path class="st0" d="M9,16c0,3.9,3.1,7,7,7s7-3.1,7-7s-3.1-7-7-7S9,12.1,9,16z M16,8c-4.4,0-8,3.6-8,8s3.6,8,8,8s8-3.6,8-8
		S20.4,8,16,8z"/>
	<path class="st1" d="M15.4,17.7h1.1v-0.1c0-0.9,0.3-1.3,0.9-1.7c0.7-0.4,1.1-1,1.1-1.9c0-1.3-1-2.1-2.4-2.1c-1.3,0-2.4,0.8-2.4,2.2
		h1.2c0-0.8,0.6-1.2,1.2-1.2c0.7,0,1.2,0.4,1.2,1.1c0,0.6-0.4,1-0.8,1.3C15.8,15.7,15.4,16.2,15.4,17.7L15.4,17.7z M16,20.1
		c0.4,0,0.8-0.3,0.8-0.8c0-0.4-0.4-0.8-0.8-0.8c-0.4,0-0.8,0.4-0.8,0.8C15.2,19.7,15.5,20.1,16,20.1z"/>
</g>
</svg>
